PathFileType	4	(X/Y/Z)	pose_F01_0-96.trc
DataRate	CameraRate	NumFrames	NumMarkers	Units	OrigDataRate	OrigDataStartFrame	OrigNumFrames
30	30	6	21	m	30	72	96
Frame#	Time	CHip			RHip			RKnee			RAnkle			RBigToe			RSmallToe			RHeel			LHip			LKnee			LAnkle			LBigToe			LSmallToe			LHeel			Neck			Nose			RShoulder			RElbow			RWrist			LShoulder			LElbow			LWrist			
		X1	Y1	Z1	X2	Y2	Z2	X3	Y3	Z3	X4	Y4	Z4	X5	Y5	Z5	X6	Y6	Z6	X7	Y7	Z7	X8	Y8	Z8	X9	Y9	Z9	X10	Y10	Z10	X11	Y11	Z11	X12	Y12	Z12	X13	Y13	Z13	X14	Y14	Z14	X15	Y15	Z15	X16	Y16	Z16	X17	Y17	Z17	X18	Y18	Z18	X19	Y19	Z19	X20	Y20	Z20	X21	Y21	Z21	
72	2.4	-0.16476642760806243	1.808958790287639	-0.507825807206828	-0.1745705312255067	1.80833695888917	-0.45649756952581866	-0.18311641880868873	1.6906705958495154	-0.44505551583245123	-0.1666877532271284	1.5762351216556565	-0.4414440356013453							-0.15550831956843658	1.5731607377470236	-0.4269993558764258	-0.15221428426534162	1.8098951187572452	-0.5612808267332466	-0.17209002972418547	1.6932798054120646	-0.546931608363389	-0.1437140937871235	1.576131515002402	-0.5368965990346987	-0.1813613099191665	1.544789449134588	-0.5632456513051901	-0.17125251168586117	1.5491444273029087	-0.5738258468017441	-0.13051499021990784	1.5644555524086565	-0.5282239948038212	-0.15802145989664734	1.9656553949002684	-0.5376368024482796	-0.18916579253296326	2.030822101526903	-0.5585411002686295	-0.177246991050286	1.9640158428117438	-0.44705511948990745	-0.1822033557068872	1.8764596909389974	-0.416776920108162	-0.20012835332169715	1.804613956893565	-0.4087102649710806	-0.13749515832134246	1.9672504503475352	-0.6230766734701578	-0.13071536043957654	1.8830673277651278	-0.6288911214963175	-0.14724353480875216	1.8070479411712133	-0.6306616283516632
73	2.433333333333333	-0.16460384220602184	1.8183923355696838	-0.5094076409560363	-0.1771756285687457	1.8176123815132668	-0.4591500805399979	-0.17654361658723705	1.6961392592243254	-0.44420197271486395	-0.1666877532271284	1.5762351216556565	-0.4414440356013453							-0.15556190188935357	1.573376651684572	-0.4270190245084957	-0.1520289468568038	1.8195110360971458	-0.5627630156013201	-0.16037843640669797	1.6972714835943983	-0.5384207999899245	-0.14348626183529992	1.5775804286246424	-0.5374891125135273	-0.18133177483989232	1.5475561033582157	-0.563732749519959	-0.16911928169530596	1.5494264461073566	-0.576167948247618	-0.13006378516745398	1.5647129102477182	-0.5288257680081772	-0.15563522224852644	1.9731721449727009	-0.5407933027944447	-0.18486940933573684	2.03905226424776	-0.555073896043773	-0.17490892514116413	1.9702599562143013	-0.44981003536724184	-0.18207617885214342	1.8897349996346045	-0.4193529074030894	-0.19584924811900742	1.8203391172977126	-0.40669883888502834	-1.691656219710322	1.8875735215989105	1.077753925654328	-0.12791487927263756	1.8907300376931377	-0.6322177193313754	-0.14152165484670878	1.8180238012055114	-0.6338412594510877
74	2.466666666666667	-0.16446927693396085	1.8233250575911761	-0.5101731281495239	-0.1762030822895082	1.822452898793643	-0.45674559838312084	-0.172458658712828	1.69917179795467	-0.4489279327901661	-0.1666877532271284	1.5762351216556565	-0.4414440356013453							-0.15561548421027058	1.5735925656221204	-0.42703869314056564	-0.15183669977291717	1.8244565550332166	-0.5635474273685604	-0.15076466818793124	1.7009823929248682	-0.5450046247600422	-0.14346350040969894	1.5775423584646138	-0.5373857164091422	-0.18138484047697293	1.5475606517556861	-0.5635822469389731	-0.17125408796865507	1.5493509734922402	-0.5738303093104404	-0.13235646005217808	1.5633468338141159	-0.5259727849454187	-0.15217504887867012	1.9781066692421247	-0.5399712581276335	-0.17754959491673733	2.0430372140137765	-0.5584147599104707	-0.17159504381499383	1.9762598833042593	-0.4492671077478027	-0.1808804714776137	1.8921227483987584	-0.4161724691612503	-0.19574782073843647	1.8261812545054603	-0.40771553479542805	-1.7229821771046958	1.8897432673323757	1.132453181871364	-0.12743118960839053	1.895968990737932	-0.6326558070822358	-0.13805928898824077	1.825850619603105	-0.6341159232233448
75	2.5	-0.16439495372008428	1.82584033147781	-0.5106613464111935	-0.17707008747822842	1.8245451359262292	-0.4603306757707168	-0.1646486961604271	1.7005547686359463	-0.4491103431618242	-0.1666877532271284	1.5762351216556565	-0.4414440356013453							-0.15566906653118756	1.5738084795596687	-0.4270583617726356	-0.149872460946519	1.8260989121761602	-0.566032636614605	-0.14445551903341772	1.7023460695783654	-0.551920494105318	-0.14320513650224986	1.5791093083803356	-0.5380876126105386	-0.18141081114436583	1.5478361993824992	-0.5636478902780266	-0.16916697920170237	1.5495025287630106	-0.5760634405851489	-0.1332789769467416	1.5634655939854778	-0.5293371377050641	-0.14735626486215223	1.9772978083764157	-0.5413298524440353	-0.17328750885785094	2.0432948755883946	-0.5629020707475089	-0.16775090424451405	1.9763932243004692	-0.4537572105020658	-0.18002781418779548	1.8971862617259576	-0.41386284632526105	-0.1969757626846576	1.8320604218062329	-0.4030852267372567	-1.7435510221546682	1.889834538753692	1.1684256715966221	-0.1248281510982033	1.8936610647488172	-0.6316734046373359	-0.13755974774963153	1.8234477085110241	-0.6304234555717204
76	2.533333333333333	-0.1630294325675938	1.8233561007602774	-0.5156769062196219	-0.17684251084571037	1.8219447972932163	-0.4601531851447356	-0.1644645983358695	1.7018979804145358	-0.4494595857344731	-0.1666877532271284	1.5762351216556565	-0.4414440356013453							-0.1553202419637401	1.5737102477437124	-0.4274131816216017	-0.1476885351144341	1.8248634864795463	-0.568202087047883	-0.14447287496614214	1.7028354282879703	-0.5519381845070191	-0.14314366664536096	1.5788713897109181	-0.5380782479346126	-0.181535067384792	1.548803103208007	-0.5634037651916075	-0.16915736046753732	1.5495549543342748	-0.5760240397968424	-0.13324721026458378	1.5632265514843664	-0.529329129295973	-0.14545220342071843	1.9769573699170981	-0.5349701109172106	-0.17039071629036373	2.0433887146864946	-0.5620428209767802	-0.16571824739438845	1.9751152252282267	-0.45552046292582576	-0.18183980116989085	1.893496166560102	-0.41991876955981305	-0.19782698963127593	1.825305478752652	-0.40553064773415076	-1.7509339819612906	1.8878775430540775	1.1829600312514426	-0.12398658012798719	1.8937425236709071	-0.6283075507214876	-0.13491263924661195	1.8256461515545506	-0.6210669216741641
77	2.566666666666667	-0.16325223469565148	1.8258822277433369	-0.516121432608494	-0.1770407565579847	1.8242798590383122	-0.4605730233585041	-0.16245531130079552	1.701999629311298	-0.4516885145388327	-0.1666877532271284	1.5762351216556565	-0.4414440356013453							-0.1549714173962927	1.5736120159277562	-0.42776800147056776	-0.14847754360452967	1.8277457452022292	-0.5718272139444349	-0.14157375316037796	1.7025355987349706	-0.5510610363304435	-0.14317203545155766	1.5789721792943427	-0.5380557732134206	-0.1813723449398287	1.54770023805578	-0.5636715251197383	-0.16918879373248902	1.5495218863486924	-0.5761055279597732	-0.13223678799989397	1.5628909738794463	-0.5259799033257816	-0.14260524226223067	1.9769528714691247	-0.5340260609481503	-0.1683728476321043	2.043504634335253	-0.5642257662977904	-0.1656253640844895	1.9751787148833504	-0.4555907150774411	-0.1798833660940318	1.8921063087861185	-0.421890632555468	-0.19469531940407653	1.8237059132903701	-0.4129239095017013	-1.75306403313795	1.8898639405902222	1.1858585976198708	-0.12388059715488582	1.897233698975189	-0.6286938442989413	-0.1323348472502111	1.8306838468930076	-0.6241503375251182
